<svg width="134" height="24" viewBox="0 0 134 24" fill="none" xmlns="http://www.w3.org/2000/svg">
<path d="M0.096 9.864H2.208V4.472H7.808V9.864H10.592V14.488H7.808V17.048C7.808 17.5067 7.86667 17.9013 7.984 18.232C8.112 18.552 8.37867 18.712 8.784 18.712C9.02933 18.712 9.248 18.6587 9.44 18.552C9.632 18.4347 9.74933 18.3547 9.792 18.312L11.68 22.312C11.5947 22.376 11.3333 22.4987 10.896 22.68C10.4693 22.8507 9.92533 23.0107 9.264 23.16C8.61333 23.3093 7.888 23.384 7.088 23.384C5.66933 23.384 4.50133 22.9947 3.584 22.216C2.66667 21.4267 2.208 20.216 2.208 18.584V14.488H0.096V9.864ZM23.0553 9.48C24.0046 9.48 24.9219 9.66667 25.8073 10.04C26.7033 10.4133 27.4393 11.0107 28.0153 11.832C28.6019 12.6533 28.8953 13.7253 28.8953 15.048V23H23.2313V15.96C23.2313 15.16 23.0553 14.5467 22.7033 14.12C22.3619 13.6827 21.8713 13.464 21.2313 13.464C20.8153 13.464 20.4153 13.5707 20.0312 13.784C19.6473 13.9973 19.3379 14.296 19.1033 14.68C18.8686 15.064 18.7513 15.512 18.7513 16.024V23H13.0872V0.983999H18.7513V11.64C18.8793 11.288 19.1459 10.952 19.5513 10.632C19.9673 10.3013 20.4793 10.0293 21.0873 9.816C21.6953 9.592 22.3513 9.48 23.0553 9.48ZM41.4828 23V21.032C41.3761 21.2347 41.1361 21.528 40.7628 21.912C40.3894 22.2853 39.8934 22.6267 39.2748 22.936C38.6668 23.2347 37.9521 23.384 37.1308 23.384C35.8294 23.384 34.7041 23.064 33.7548 22.424C32.8054 21.784 32.0694 20.936 31.5468 19.88C31.0348 18.824 30.7788 17.6773 30.7788 16.44C30.7788 15.2027 31.0348 14.056 31.5468 13C32.0694 11.944 32.8054 11.096 33.7548 10.456C34.7041 9.80533 35.8294 9.48 37.1308 9.48C37.9094 9.48 38.5868 9.59733 39.1628 9.832C39.7494 10.0667 40.2294 10.344 40.6028 10.664C40.9868 10.984 41.2588 11.288 41.4188 11.576V9.864H47.0508V23H41.4828ZM36.3308 16.44C36.3308 16.9093 36.4428 17.3413 36.6668 17.736C36.8908 18.12 37.1948 18.424 37.5788 18.648C37.9628 18.872 38.4001 18.984 38.8908 18.984C39.3814 18.984 39.8134 18.872 40.1868 18.648C40.5708 18.424 40.8694 18.12 41.0828 17.736C41.3068 17.3413 41.4188 16.9093 41.4188 16.44C41.4188 15.9707 41.3068 15.544 41.0828 15.16C40.8694 14.7653 40.5708 14.456 40.1868 14.232C39.8134 13.9973 39.3814 13.88 38.8908 13.88C38.4001 13.88 37.9628 13.9973 37.5788 14.232C37.1948 14.456 36.8908 14.7653 36.6668 15.16C36.4428 15.544 36.3308 15.9707 36.3308 16.44ZM55.0075 23H49.3435V9.864H55.0075V11.8H54.9275C55.0342 11.5653 55.2475 11.2667 55.5675 10.904C55.8982 10.5413 56.3568 10.216 56.9435 9.928C57.5408 9.62933 58.2822 9.48 59.1675 9.48C59.7648 9.48 60.3302 9.576 60.8635 9.768C61.3968 9.96 61.7862 10.1467 62.0315 10.328L59.8555 14.92C59.7168 14.7173 59.4555 14.5147 59.0715 14.312C58.6875 14.0987 58.2128 13.992 57.6475 13.992C57.0075 13.992 56.4902 14.136 56.0955 14.424C55.7115 14.7013 55.4342 15.048 55.2635 15.464C55.0928 15.88 55.0075 16.28 55.0075 16.664V23ZM63.2655 23V9.864H68.9135V23H63.2655ZM66.1615 7.848C65.2975 7.848 64.5615 7.544 63.9535 6.936C63.3562 6.328 63.0575 5.60266 63.0575 4.76C63.0575 3.91733 63.3562 3.18667 63.9535 2.568C64.5615 1.94933 65.2975 1.64 66.1615 1.64C66.7268 1.64 67.2442 1.784 67.7135 2.072C68.1828 2.34933 68.5615 2.72267 68.8495 3.192C69.1375 3.66133 69.2815 4.184 69.2815 4.76C69.2815 5.60266 68.9722 6.328 68.3535 6.936C67.7455 7.544 67.0148 7.848 66.1615 7.848ZM81.6148 9.48C82.5641 9.48 83.4868 9.66667 84.3828 10.04C85.2788 10.4133 86.0148 11.0107 86.5908 11.832C87.1774 12.6533 87.4708 13.7253 87.4708 15.048V23H81.7908V15.96C81.7908 15.16 81.5988 14.5467 81.2148 14.12C80.8308 13.6827 80.3188 13.464 79.6788 13.464C79.2628 13.464 78.8734 13.5707 78.5108 13.784C78.1481 13.9973 77.8548 14.296 77.6308 14.68C77.4174 15.064 77.3108 15.512 77.3108 16.024V23H71.6468V9.864H77.3108V11.64C77.4494 11.288 77.7214 10.952 78.1268 10.632C78.5321 10.3013 79.0388 10.0293 79.6468 9.816C80.2548 9.592 80.9108 9.48 81.6148 9.48ZM95.5653 23.384C94.2639 23.384 93.1493 23.064 92.2213 22.424C91.2933 21.784 90.5733 20.936 90.0613 19.88C89.5599 18.824 89.3092 17.6773 89.3092 16.44C89.3092 15.2027 89.5599 14.056 90.0613 13C90.5733 11.944 91.2933 11.096 92.2213 10.456C93.1493 9.80533 94.2639 9.48 95.5653 9.48C96.3546 9.48 97.0586 9.59733 97.6773 9.832C98.2959 10.056 98.7973 10.3333 99.1813 10.664C99.5759 10.984 99.8266 11.288 99.9333 11.576V0.983999H105.581V23H99.9813V21.032C99.7359 21.448 99.3839 21.8373 98.9253 22.2C98.4773 22.552 97.9599 22.8347 97.3733 23.048C96.7973 23.272 96.1946 23.384 95.5653 23.384ZM97.3733 18.984C97.8746 18.984 98.3173 18.872 98.7013 18.648C99.0853 18.424 99.3839 18.12 99.5973 17.736C99.8213 17.3413 99.9333 16.9093 99.9333 16.44C99.9333 15.9707 99.8213 15.544 99.5973 15.16C99.3839 14.7653 99.0853 14.456 98.7013 14.232C98.3173 13.9973 97.8746 13.88 97.3733 13.88C96.8933 13.88 96.4613 13.9973 96.0773 14.232C95.6933 14.456 95.3893 14.7653 95.1653 15.16C94.9519 15.544 94.8453 15.9707 94.8453 16.44C94.8453 16.9093 94.9519 17.3413 95.1653 17.736C95.3893 18.12 95.6933 18.424 96.0773 18.648C96.4613 18.872 96.8933 18.984 97.3733 18.984ZM118.358 23V21.032C118.251 21.2347 118.011 21.528 117.638 21.912C117.264 22.2853 116.768 22.6267 116.15 22.936C115.542 23.2347 114.827 23.384 114.006 23.384C112.704 23.384 111.579 23.064 110.63 22.424C109.68 21.784 108.944 20.936 108.422 19.88C107.91 18.824 107.654 17.6773 107.654 16.44C107.654 15.2027 107.91 14.056 108.422 13C108.944 11.944 109.68 11.096 110.63 10.456C111.579 9.80533 112.704 9.48 114.006 9.48C114.784 9.48 115.462 9.59733 116.038 9.832C116.624 10.0667 117.104 10.344 117.478 10.664C117.862 10.984 118.134 11.288 118.294 11.576V9.864H123.926V23H118.358ZM113.206 16.44C113.206 16.9093 113.318 17.3413 113.542 17.736C113.766 18.12 114.07 18.424 114.454 18.648C114.838 18.872 115.275 18.984 115.766 18.984C116.256 18.984 116.688 18.872 117.062 18.648C117.446 18.424 117.744 18.12 117.958 17.736C118.182 17.3413 118.294 16.9093 118.294 16.44C118.294 15.9707 118.182 15.544 117.958 15.16C117.744 14.7653 117.446 14.456 117.062 14.232C116.688 13.9973 116.256 13.88 115.766 13.88C115.275 13.88 114.838 13.9973 114.454 14.232C114.07 14.456 113.766 14.7653 113.542 15.16C113.318 15.544 113.206 15.9707 113.206 16.44ZM130.155 23.384C129.28 23.384 128.528 23.0747 127.899 22.456C127.28 21.8267 126.971 21.0747 126.971 20.2C126.971 19.304 127.28 18.5467 127.899 17.928C128.528 17.2987 129.28 16.984 130.155 16.984C131.04 16.984 131.792 17.2987 132.411 17.928C133.04 18.5467 133.355 19.304 133.355 20.2C133.355 21.0747 133.04 21.8267 132.411 22.456C131.792 23.0747 131.04 23.384 130.155 23.384Z" fill="black"/>
</svg>
